<svg width="135" height="28" viewBox="0 0 135 28" fill="none" xmlns="http://www.w3.org/2000/svg">
<path d="M0.140547 19.07L0.800547 18.92C1.50055 18.7 1.96055 18.44 2.18055 18.14C2.40055 17.82 2.51055 17.24 2.51055 16.4V4.1C2.51055 3.26 2.39055 2.68 2.15055 2.36C1.93055 2.02 1.48055 1.76 0.800547 1.58L0.140547 1.43L0.470547 0.499999H6.44055L6.80055 0.919999L6.44055 1.43C5.98055 2.01 5.66055 2.64 5.48055 3.32C5.30055 3.98 5.21055 4.85 5.21055 5.93V16.58C5.21055 17.36 5.32055 17.91 5.54055 18.23C5.76055 18.53 6.20055 18.78 6.86055 18.98L7.40055 19.13L7.16055 20H0.470547L0.140547 19.07ZM22.5306 20.39C21.7906 20.39 21.2606 20.17 20.9406 19.73C20.6206 19.27 20.4606 18.53 20.4606 17.51V11.03C20.4606 10.11 20.2606 9.42 19.8606 8.96C19.4606 8.48 18.8706 8.24 18.0906 8.24C17.3106 8.24 16.6206 8.55 16.0206 9.17C15.4406 9.79 14.9906 10.66 14.6706 11.78C14.3506 12.9 14.1906 14.19 14.1906 15.65C14.1906 16.49 14.2506 17.17 14.3706 17.69C14.5106 18.21 14.7406 18.7 15.0606 19.16L15.3906 19.58L15.0606 20H10.2906L10.0206 19.16L10.5306 19.01C11.0106 18.93 11.3206 18.75 11.4606 18.47C11.6206 18.17 11.7006 17.67 11.7006 16.97V9.35C11.7006 9.13 11.6606 8.98 11.5806 8.9C11.5006 8.8 11.3606 8.75 11.1606 8.75H9.99063L9.72063 8.03C10.2406 7.55 10.8406 7.16 11.5206 6.86C12.2006 6.56 12.8006 6.41 13.3206 6.41C13.5806 6.41 13.7906 6.49 13.9506 6.65C14.1106 6.81 14.1906 7.01 14.1906 7.25V10.22C14.6506 9.04 15.3506 8.07 16.2906 7.31C17.2306 6.55 18.2206 6.17 19.2606 6.17C20.5206 6.17 21.4406 6.56 22.0206 7.34C22.6206 8.12 22.9206 9.35 22.9206 11.03V17.6C22.9206 18.22 23.1906 18.53 23.7306 18.53C24.1706 18.53 24.6206 18.34 25.0806 17.96L25.5906 18.65C25.1306 19.17 24.6206 19.59 24.0606 19.91C23.5006 20.23 22.9906 20.39 22.5306 20.39ZM32.3116 20.39C30.9516 20.39 29.8216 20.08 28.9216 19.46C28.0216 18.82 27.5716 17.99 27.5716 16.97C27.5716 16.37 27.7816 15.87 28.2016 15.47C28.6416 15.05 29.1916 14.84 29.8516 14.84C29.9916 14.84 30.1216 14.87 30.2416 14.93C30.3616 14.99 30.4216 15.07 30.4216 15.17C30.4216 15.23 30.3616 15.41 30.2416 15.71C30.1216 15.99 30.0616 16.33 30.0616 16.73C30.0616 17.47 30.3216 18.04 30.8416 18.44C31.3816 18.84 31.9816 19.04 32.6416 19.04C33.4016 19.04 34.0216 18.84 34.5016 18.44C34.9816 18.04 35.2216 17.52 35.2216 16.88C35.2216 16.3 34.9616 15.82 34.4416 15.44C33.9416 15.06 33.2116 14.67 32.2516 14.27C31.3716 13.89 30.6316 13.53 30.0316 13.19C29.4516 12.85 28.9516 12.4 28.5316 11.84C28.1116 11.28 27.9016 10.6 27.9016 9.8C27.9016 8.74 28.3716 7.87 29.3116 7.19C30.2516 6.51 31.4316 6.17 32.8516 6.17C34.1516 6.17 35.2216 6.42 36.0616 6.92C36.9016 7.4 37.3216 8.07 37.3216 8.93C37.3216 9.63 37.1116 10.2 36.6916 10.64C36.2716 11.08 35.7216 11.3 35.0416 11.3C34.6416 11.3 34.4416 11.17 34.4416 10.91C34.4416 10.83 34.5116 10.65 34.6516 10.37C34.8116 10.09 34.8916 9.77 34.8916 9.41C34.8916 8.77 34.6616 8.29 34.2016 7.97C33.7416 7.63 33.2216 7.46 32.6416 7.46C31.9016 7.46 31.3116 7.64 30.8716 8C30.4516 8.36 30.2416 8.83 30.2416 9.41C30.2416 10.09 30.5216 10.65 31.0816 11.09C31.6416 11.51 32.4316 11.91 33.4516 12.29C34.3316 12.67 35.0616 13.02 35.6416 13.34C36.2216 13.66 36.7116 14.07 37.1116 14.57C37.5116 15.05 37.7116 15.62 37.7116 16.28C37.7116 17.52 37.2116 18.52 36.2116 19.28C35.2316 20.02 33.9316 20.39 32.3116 20.39ZM44.208 20.39C43.468 20.39 42.888 20.16 42.468 19.7C42.048 19.22 41.838 18.57 41.838 17.75V8.18H39.468C39.468 7.7 39.508 7.39 39.588 7.25C39.668 7.09 39.848 6.97 40.128 6.89C41.088 6.65 41.768 6.25 42.168 5.69C42.568 5.13 42.868 4.39 43.068 3.47C43.108 3.19 43.198 3.02 43.338 2.96C43.498 2.88 43.838 2.84 44.358 2.84V6.5H47.868C47.868 6.88 47.808 7.22 47.688 7.52C47.588 7.82 47.448 8.04 47.268 8.18H44.358V16.97C44.358 17.53 44.428 17.93 44.568 18.17C44.728 18.39 44.998 18.5 45.378 18.5C45.918 18.5 46.528 18.21 47.208 17.63L47.718 18.35C47.258 18.95 46.698 19.44 46.038 19.82C45.378 20.2 44.768 20.39 44.208 20.39ZM54.5165 20.39C53.6365 20.39 52.8165 20.14 52.0565 19.64C51.3165 19.12 50.7165 18.37 50.2565 17.39C49.8165 16.39 49.5965 15.18 49.5965 13.76C49.5965 11.42 50.2265 9.57 51.4865 8.21C52.7665 6.85 54.4865 6.17 56.6465 6.17C57.3665 6.17 58.3465 6.28 59.5865 6.5C60.5065 6.66 61.3365 6.77 62.0765 6.83L62.4365 7.16L62.0465 7.67C61.9065 7.91 61.8065 8.1 61.7465 8.24C61.7065 8.36 61.6865 8.53 61.6865 8.75V17.6C61.6865 18.16 61.9765 18.44 62.5565 18.44C62.9965 18.44 63.4465 18.28 63.9065 17.96L64.4165 18.65C63.9365 19.19 63.4265 19.62 62.8865 19.94C62.3465 20.24 61.8565 20.39 61.4165 20.39C60.6565 20.39 60.1065 20.17 59.7665 19.73C59.4265 19.27 59.2565 18.53 59.2565 17.51C58.5365 18.57 57.7865 19.32 57.0065 19.76C56.2465 20.18 55.4165 20.39 54.5165 20.39ZM55.5665 18.26C57.0865 18.26 58.3165 17.44 59.2565 15.8V8.45C58.4765 7.93 57.5965 7.67 56.6165 7.67C55.3165 7.67 54.2965 8.16 53.5565 9.14C52.8365 10.1 52.4765 11.47 52.4765 13.25C52.4765 14.97 52.7665 16.24 53.3465 17.06C53.9465 17.86 54.6865 18.26 55.5665 18.26ZM72.4834 27.59C71.4634 27.59 70.6034 27.4 69.9034 27.02C69.2034 26.66 68.6734 26.18 68.3134 25.58C67.9734 25 67.8034 24.37 67.8034 23.69C67.8034 22.77 68.1134 21.99 68.7334 21.35C69.3534 20.71 70.2034 20.39 71.2834 20.39C71.4434 20.39 71.5634 20.41 71.6434 20.45C71.7234 20.51 71.7634 20.58 71.7634 20.66C71.7634 20.74 71.6334 20.91 71.3734 21.17C71.1334 21.45 70.9134 21.78 70.7134 22.16C70.5334 22.54 70.4434 23.02 70.4434 23.6C70.4434 24.32 70.6534 24.92 71.0734 25.4C71.5134 25.9 72.0934 26.15 72.8134 26.15C73.9334 26.15 74.7534 25.68 75.2734 24.74C75.7934 23.82 76.0534 22.58 76.0534 21.02V16.73C75.3134 17.75 74.5434 18.48 73.7434 18.92C72.9634 19.36 72.1434 19.58 71.2834 19.58C70.4034 19.58 69.5834 19.36 68.8234 18.92C68.0834 18.48 67.4934 17.82 67.0534 16.94C66.6134 16.06 66.3934 15 66.3934 13.76C66.3934 11.42 67.0234 9.57 68.2834 8.21C69.5634 6.85 71.2934 6.17 73.4734 6.17C74.1534 6.17 75.1134 6.28 76.3534 6.5C76.5534 6.52 76.9134 6.57 77.4334 6.65C77.9734 6.73 78.4634 6.79 78.9034 6.83L79.1734 7.16L78.8734 7.67C78.7334 7.87 78.6334 8.04 78.5734 8.18C78.5134 8.32 78.4834 8.51 78.4834 8.75V20.6C78.4834 22.82 77.9434 24.54 76.8634 25.76C75.8034 26.98 74.3434 27.59 72.4834 27.59ZM72.3934 17.51C73.1134 17.51 73.7834 17.31 74.4034 16.91C75.0434 16.51 75.5934 15.88 76.0534 15.02V8.45C75.2734 7.93 74.4034 7.67 73.4434 7.67C72.1234 7.67 71.0834 8.16 70.3234 9.14C69.5834 10.1 69.2134 11.47 69.2134 13.25C69.2134 14.71 69.5134 15.79 70.1134 16.49C70.7134 17.17 71.4734 17.51 72.3934 17.51ZM82.5011 19.16L83.0111 19.01C83.4911 18.93 83.8011 18.75 83.9411 18.47C84.1011 18.17 84.1811 17.67 84.1811 16.97V9.35C84.1811 9.13 84.1411 8.98 84.0611 8.9C83.9811 8.8 83.8411 8.75 83.6411 8.75H82.4711L82.2011 8.03C82.7211 7.55 83.3211 7.16 84.0011 6.86C84.6811 6.56 85.2811 6.41 85.8011 6.41C86.0611 6.41 86.2711 6.49 86.4311 6.65C86.5911 6.81 86.6711 7.01 86.6711 7.25V10.22H86.8211C87.1411 9 87.6211 8.02 88.2611 7.28C88.9211 6.54 89.6311 6.17 90.3911 6.17C91.1511 6.17 91.7711 6.42 92.2511 6.92C92.7511 7.4 93.0011 8.07 93.0011 8.93C93.0011 9.61 92.7511 10.18 92.2511 10.64C91.7511 11.1 91.1211 11.33 90.3611 11.33C90.0011 11.33 89.8211 11.24 89.8211 11.06C89.8211 11 89.8911 10.86 90.0311 10.64C90.1711 10.42 90.2911 10.2 90.3911 9.98C90.4911 9.76 90.5411 9.5 90.5411 9.2C90.5411 8.86 90.4611 8.6 90.3011 8.42C90.1411 8.22 89.9311 8.12 89.6711 8.12C89.2511 8.12 88.8111 8.38 88.3511 8.9C87.8911 9.42 87.4911 10.25 87.1511 11.39C86.8311 12.53 86.6711 13.98 86.6711 15.74C86.6711 16.56 86.7311 17.23 86.8511 17.75C86.9911 18.25 87.2211 18.72 87.5411 19.16L87.8711 19.58L87.5411 20H82.7711L82.5011 19.16ZM99.1356 20.39C98.2556 20.39 97.4356 20.14 96.6756 19.64C95.9356 19.12 95.3356 18.37 94.8756 17.39C94.4356 16.39 94.2156 15.18 94.2156 13.76C94.2156 11.42 94.8456 9.57 96.1056 8.21C97.3856 6.85 99.1056 6.17 101.266 6.17C101.986 6.17 102.966 6.28 104.206 6.5C105.126 6.66 105.956 6.77 106.696 6.83L107.056 7.16L106.666 7.67C106.526 7.91 106.426 8.1 106.366 8.24C106.326 8.36 106.306 8.53 106.306 8.75V17.6C106.306 18.16 106.596 18.44 107.176 18.44C107.616 18.44 108.066 18.28 108.526 17.96L109.036 18.65C108.556 19.19 108.046 19.62 107.506 19.94C106.966 20.24 106.476 20.39 106.036 20.39C105.276 20.39 104.726 20.17 104.386 19.73C104.046 19.27 103.876 18.53 103.876 17.51C103.156 18.57 102.406 19.32 101.626 19.76C100.866 20.18 100.036 20.39 99.1356 20.39ZM100.186 18.26C101.706 18.26 102.936 17.44 103.876 15.8V8.45C103.096 7.93 102.216 7.67 101.236 7.67C99.9356 7.67 98.9156 8.16 98.1756 9.14C97.4556 10.1 97.0956 11.47 97.0956 13.25C97.0956 14.97 97.3856 16.24 97.9656 17.06C98.5656 17.86 99.3056 18.26 100.186 18.26ZM131.383 20.39C130.643 20.39 130.103 20.17 129.763 19.73C129.443 19.27 129.283 18.53 129.283 17.51V11.03C129.283 9.17 128.613 8.24 127.273 8.24C126.533 8.24 125.863 8.54 125.263 9.14C124.683 9.72 124.223 10.55 123.883 11.63C123.543 12.69 123.363 13.92 123.343 15.32V15.65C123.343 16.57 123.413 17.31 123.553 17.87C123.713 18.43 124.033 19 124.513 19.58L124.183 20H120.913V11.03C120.913 10.11 120.733 9.42 120.373 8.96C120.033 8.48 119.523 8.24 118.843 8.24C118.063 8.24 117.373 8.55 116.773 9.17C116.193 9.79 115.743 10.66 115.423 11.78C115.103 12.9 114.943 14.19 114.943 15.65C114.943 16.49 115.003 17.17 115.123 17.69C115.263 18.21 115.493 18.7 115.813 19.16L116.143 19.58L115.813 20H111.043L110.773 19.16L111.283 19.01C111.763 18.93 112.073 18.75 112.213 18.47C112.373 18.17 112.453 17.67 112.453 16.97V9.35C112.453 9.13 112.413 8.98 112.333 8.9C112.253 8.8 112.113 8.75 111.913 8.75H110.743L110.473 8.03C110.993 7.55 111.593 7.16 112.273 6.86C112.953 6.56 113.553 6.41 114.073 6.41C114.333 6.41 114.543 6.49 114.703 6.65C114.863 6.81 114.943 7.01 114.943 7.25V10.22C115.403 9.02 116.083 8.05 116.983 7.31C117.903 6.55 118.863 6.17 119.863 6.17C120.983 6.17 121.823 6.5 122.383 7.16C122.943 7.8 123.263 8.82 123.343 10.22C123.803 9.04 124.493 8.07 125.413 7.31C126.333 6.55 127.283 6.17 128.263 6.17C129.483 6.17 130.363 6.56 130.903 7.34C131.463 8.12 131.743 9.35 131.743 11.03V17.6C131.743 18.22 132.003 18.53 132.523 18.53C132.983 18.53 133.433 18.34 133.873 17.96L134.413 18.65C133.933 19.19 133.423 19.62 132.883 19.94C132.343 20.24 131.843 20.39 131.383 20.39Z" fill="black"/>
</svg>
