<svg width="89" height="32" viewBox="0 0 89 32" fill="none" xmlns="http://www.w3.org/2000/svg">
<path d="M5.10285 21.24C4.84285 21.24 4.65285 21.16 4.53285 21H0.602852C0.402852 21 0.302852 20.93 0.302852 20.79C0.302852 20.65 0.382852 20.5 0.542852 20.34C0.722852 20.16 0.912852 20.07 1.11285 20.07H4.44285C4.70285 17.37 4.98285 14.65 5.28285 11.91C5.60285 9.17 6.01285 6.52 6.51285 3.96V3.06C6.51285 2.94 6.52285 2.84 6.54285 2.76C6.56285 2.68 6.57285 2.58 6.57285 2.46H3.09285C2.89285 2.46 2.79285 2.39 2.79285 2.25C2.79285 2.11 2.87285 1.96 3.03285 1.8C3.21285 1.62 3.40285 1.53 3.60285 1.53H6.87285C6.97285 1.31 7.15285 1.15 7.41285 1.05C7.69285 0.93 8.09285 0.87 8.61285 0.87C8.91285 0.87 9.06285 0.97 9.06285 1.17V1.23L8.88285 1.5C9.72285 1.5 10.4929 1.5 11.1929 1.5C11.9129 1.48 12.4329 1.46 12.7529 1.44C12.8729 1.44 12.9329 1.5 12.9329 1.62C12.9329 1.74 12.8429 1.9 12.6629 2.1C12.4829 2.28 12.1929 2.4 11.7929 2.46H8.52285V2.52C8.18285 3.48 7.87285 4.61 7.59285 5.91C7.31285 7.19 7.06285 8.53 6.84285 9.93C6.62285 11.33 6.44285 12.68 6.30285 13.98C6.16285 15.26 6.05285 16.4 5.97285 17.4C5.89285 18.4 5.85285 19.13 5.85285 19.59C5.85285 19.81 5.88285 19.97 5.94285 20.07C6.86285 20.05 7.72285 20.04 8.52285 20.04C9.34285 20.02 9.92285 20 10.2629 19.98C10.3829 19.98 10.4429 20.04 10.4429 20.16C10.4429 20.28 10.3529 20.44 10.1729 20.64C9.99285 20.82 9.70285 20.94 9.30285 21H5.76285C5.56285 21.16 5.34285 21.24 5.10285 21.24ZM17.7019 22.02C17.4219 22.02 17.2019 21.92 17.0419 21.72C16.9019 21.54 16.8319 21.21 16.8319 20.73C16.8319 20.07 16.9419 19.33 17.1619 18.51C17.4019 17.69 17.6819 16.85 18.0019 15.99C18.3419 15.13 18.6819 14.31 19.0219 13.53C19.3619 12.75 19.6319 12.09 19.8319 11.55C19.9319 11.29 19.9819 11.09 19.9819 10.95C19.9819 10.85 19.9519 10.8 19.8919 10.8C19.7919 10.8 19.5719 10.98 19.2319 11.34C18.9519 11.66 18.5619 12.14 18.0619 12.78C17.5819 13.4 17.0619 14.11 16.5019 14.91C15.9419 15.69 15.4019 16.47 14.8819 17.25C14.3619 18.01 13.9319 18.69 13.5919 19.29C13.2719 19.89 13.1019 20.31 13.0819 20.55C13.0819 20.63 12.9919 20.75 12.8119 20.91C12.6319 21.07 12.4219 21.21 12.1819 21.33C11.9619 21.45 11.7719 21.51 11.6119 21.51C11.4719 21.51 11.3919 21.44 11.3719 21.3C11.3919 21.32 11.4819 21.13 11.6419 20.73C11.8019 20.31 11.9919 19.77 12.2119 19.11C12.4519 18.45 12.6919 17.77 12.9319 17.07C13.1719 16.35 13.3919 15.7 13.5919 15.12C13.7919 14.52 13.9319 14.09 14.0119 13.83C14.0919 13.59 14.1319 13.41 14.1319 13.29C14.1319 13.19 14.1119 13.12 14.0719 13.08C14.0519 13.04 14.0419 12.98 14.0419 12.9C14.0419 12.82 14.0719 12.69 14.1319 12.51C14.4319 11.69 14.6919 11.05 14.9119 10.59C15.1319 10.13 15.3819 9.81 15.6619 9.63C15.9419 9.45 16.3119 9.36 16.7719 9.36C17.0519 9.36 17.2019 9.45 17.2219 9.63C17.0819 9.93 16.8719 10.36 16.5919 10.92C16.3319 11.48 16.0419 12.11 15.7219 12.81C15.4219 13.51 15.1319 14.21 14.8519 14.91C14.5919 15.61 14.4019 16.25 14.2819 16.83C14.5219 16.43 14.8519 15.91 15.2719 15.27C15.7119 14.61 16.2019 13.91 16.7419 13.17C17.3019 12.43 17.8719 11.74 18.4519 11.1C19.0519 10.44 19.6419 9.9 20.2219 9.48C20.8219 9.06 21.3719 8.85 21.8719 8.85C22.0319 8.85 22.1719 8.88 22.2919 8.94C22.4119 8.98 22.4719 9.08 22.4719 9.24C22.4719 9.42 22.4019 9.62 22.2619 9.84C21.7819 10.62 21.2919 11.51 20.7919 12.51C20.3119 13.51 19.8619 14.52 19.4419 15.54C19.0419 16.56 18.7119 17.52 18.4519 18.42C18.2119 19.32 18.0919 20.06 18.0919 20.64C18.0919 21 18.1719 21.18 18.3319 21.18C18.3919 21.18 18.5019 21.13 18.6619 21.03C18.8219 20.93 18.9819 20.83 19.1419 20.73C19.3219 20.63 19.4419 20.58 19.5019 20.58C19.6219 20.58 19.6819 20.64 19.6819 20.76C19.6819 20.92 19.5719 21.1 19.3519 21.3C19.1519 21.5 18.9019 21.67 18.6019 21.81C18.3019 21.95 18.0019 22.02 17.7019 22.02ZM22.2071 21.51C22.0471 21.51 21.9171 21.44 21.8171 21.3C21.7171 21.18 21.6671 21.05 21.6671 20.91C21.6671 20.67 21.7771 20.55 21.9971 20.55C22.2371 20.55 22.5971 20.5 23.0771 20.4C23.5771 20.3 24.0871 20.17 24.6071 20.01C25.1471 19.83 25.6071 19.62 25.9871 19.38C26.3671 19.14 26.5571 18.88 26.5571 18.6C26.5571 18.34 26.4071 18.08 26.1071 17.82C25.8271 17.54 25.4771 17.26 25.0571 16.98C24.6371 16.7 24.2071 16.41 23.7671 16.11C23.3471 15.81 22.9871 15.5 22.6871 15.18C22.4071 14.84 22.2671 14.48 22.2671 14.1C22.2671 13.94 22.2871 13.78 22.3271 13.62C22.3871 13.46 22.4871 13.3 22.6271 13.14C23.2271 12.38 23.8771 11.77 24.5771 11.31C25.2971 10.83 25.9671 10.47 26.5871 10.23C27.2071 9.97 27.6771 9.78 27.9971 9.66C28.0971 9.62 28.2171 9.59 28.3571 9.57C28.4971 9.53 28.6371 9.51 28.7771 9.51C29.0571 9.51 29.3071 9.6 29.5271 9.78C29.7471 9.94 29.8571 10.25 29.8571 10.71C29.8371 10.91 29.7571 11.17 29.6171 11.49C29.4771 11.79 29.2971 12.1 29.0771 12.42C28.8771 12.74 28.6771 13.01 28.4771 13.23C28.2771 13.43 28.1071 13.53 27.9671 13.53C27.8871 13.53 27.8471 13.47 27.8471 13.35C27.8471 13.17 27.8971 12.94 27.9971 12.66C28.1171 12.38 28.2271 12.11 28.3271 11.85C28.4471 11.57 28.5071 11.35 28.5071 11.19C28.5071 10.89 28.3271 10.74 27.9671 10.74C27.8271 10.74 27.6671 10.76 27.4871 10.8C27.3271 10.82 27.1571 10.85 26.9771 10.89C26.8571 10.91 26.6271 11 26.2871 11.16C25.9471 11.3 25.5871 11.49 25.2071 11.73C24.8271 11.97 24.4971 12.25 24.2171 12.57C23.9371 12.87 23.7971 13.2 23.7971 13.56C23.7971 13.78 23.8471 13.98 23.9471 14.16C24.1871 14.64 24.5171 15.02 24.9371 15.3C25.3571 15.56 25.7771 15.8 26.1971 16.02C26.6171 16.22 26.9671 16.45 27.2471 16.71C27.5471 16.95 27.6971 17.3 27.6971 17.76C27.6971 18.24 27.4971 18.71 27.0971 19.17C26.6971 19.61 26.1871 20.01 25.5671 20.37C24.9671 20.71 24.3571 20.98 23.7371 21.18C23.1371 21.4 22.6271 21.51 22.2071 21.51ZM31.2043 21.24C30.9443 21.24 30.7643 21.16 30.6643 21C30.5643 20.84 30.5143 20.63 30.5143 20.37C30.5143 19.97 30.6043 19.5 30.7843 18.96C30.9643 18.4 31.1143 17.93 31.2343 17.55C31.6743 16.17 32.0443 14.88 32.3443 13.68C32.6643 12.48 32.9343 11.48 33.1543 10.68C33.0743 10.7 32.8043 10.73 32.3443 10.77C31.8843 10.79 31.4843 10.8 31.1443 10.8C30.6843 10.8 30.4543 10.71 30.4543 10.53C30.4543 10.37 30.5843 10.2 30.8443 10.02C31.1243 9.84 31.3343 9.75 31.4743 9.75H33.3943L33.5143 9.33C33.5743 9.09 33.6043 8.92 33.6043 8.82C33.6043 8.7 33.5843 8.62 33.5443 8.58C33.5043 8.54 33.4843 8.48 33.4843 8.4C33.4843 8.34 33.5143 8.22 33.5743 8.04C33.8343 7.2 34.0743 6.55 34.2943 6.09C34.5143 5.63 34.7643 5.31 35.0443 5.13C35.3243 4.95 35.6843 4.86 36.1243 4.86C36.4243 4.86 36.5843 4.95 36.6043 5.13C36.4843 5.39 36.2543 5.94 35.9143 6.78C35.5743 7.6 35.1943 8.59 34.7743 9.75H37.6843C38.2443 9.75 38.5243 9.81 38.5243 9.93C38.5243 10.05 38.3743 10.15 38.0743 10.23C37.7943 10.31 37.4343 10.38 36.9943 10.44C36.5543 10.48 36.1043 10.51 35.6443 10.53C35.2043 10.55 34.8243 10.56 34.5043 10.56C34.2443 11.32 33.9543 12.19 33.6343 13.17C33.3343 14.13 33.0443 15.1 32.7643 16.08C32.4843 17.04 32.2543 17.9 32.0743 18.66C31.9743 19.06 31.9243 19.35 31.9243 19.53C31.9243 19.87 32.0343 20.04 32.2543 20.04C32.5143 20.04 32.7943 19.94 33.0943 19.74C33.4143 19.52 33.7143 19.27 33.9943 18.99C34.2943 18.69 34.5543 18.44 34.7743 18.24C35.0143 18.02 35.1743 17.91 35.2543 17.91C35.3543 17.91 35.4043 17.97 35.4043 18.09C35.4043 18.21 35.3743 18.34 35.3143 18.48C35.2543 18.62 35.1743 18.71 35.0743 18.75C34.9143 18.89 34.6743 19.1 34.3543 19.38C34.0343 19.64 33.6843 19.92 33.3043 20.22C32.9243 20.5 32.5443 20.74 32.1643 20.94C31.8043 21.14 31.4843 21.24 31.2043 21.24ZM36.7076 21.09C36.2276 21.09 35.9876 20.73 35.9876 20.01C35.9876 19.45 36.0976 18.76 36.3176 17.94C36.5376 17.1 36.8276 16.23 37.1876 15.33C37.5476 14.43 37.9376 13.59 38.3576 12.81C38.7976 12.01 39.2376 11.36 39.6776 10.86C40.1376 10.36 40.5576 10.11 40.9376 10.11H41.0276L41.3576 9.87C41.4576 9.75 41.5776 9.67 41.7176 9.63C41.8776 9.59 42.0376 9.57 42.1976 9.57C42.5976 9.57 43.0176 9.65 43.4576 9.81C43.8976 9.97 44.1976 10.05 44.3576 10.05C44.4976 10.05 44.5976 9.97 44.6576 9.81C44.7376 9.65 44.8976 9.57 45.1376 9.57C45.4176 9.57 45.6076 9.63 45.7076 9.75C45.8276 9.87 45.8876 10.03 45.8876 10.23C45.8876 10.51 45.8076 10.84 45.6476 11.22C45.4876 11.58 45.3576 11.88 45.2576 12.12C45.2376 12.2 45.1476 12.27 44.9876 12.33C44.8276 12.37 44.7276 12.43 44.6876 12.51C44.3676 13.43 44.0776 14.37 43.8176 15.33C43.5576 16.27 43.3576 17.09 43.2176 17.79C43.0776 18.49 43.0076 18.92 43.0076 19.08C43.0076 19.58 43.1476 19.83 43.4276 19.83C43.6676 19.83 43.9276 19.73 44.2076 19.53C44.4876 19.31 44.7576 19.07 45.0176 18.81C45.2976 18.55 45.5276 18.32 45.7076 18.12C45.8876 17.9 45.9876 17.79 46.0076 17.79C46.0476 17.79 46.0676 17.83 46.0676 17.91C46.0676 17.99 46.0376 18.11 45.9776 18.27C45.9176 18.43 45.8476 18.54 45.7676 18.6C45.5676 18.78 45.2576 19.06 44.8376 19.44C44.4176 19.8 43.9676 20.14 43.4876 20.46C43.0076 20.78 42.5876 20.94 42.2276 20.94C41.8076 20.94 41.5576 20.69 41.4776 20.19C41.4776 19.83 41.5376 19.37 41.6576 18.81C41.7776 18.23 41.9076 17.64 42.0476 17.04C42.2076 16.44 42.3476 15.94 42.4676 15.54C42.1676 15.94 41.7776 16.45 41.2976 17.07C40.8376 17.69 40.3276 18.31 39.7676 18.93C39.2276 19.53 38.6876 20.04 38.1476 20.46C37.6076 20.88 37.1276 21.09 36.7076 21.09ZM37.6676 19.68C37.8676 19.68 38.1276 19.55 38.4476 19.29C38.7876 19.01 39.1476 18.66 39.5276 18.24C39.9276 17.82 40.2976 17.4 40.6376 16.98C40.9976 16.56 41.2976 16.19 41.5376 15.87C41.7976 15.53 41.9576 15.32 42.0176 15.24C42.3376 14.72 42.6476 14.16 42.9476 13.56C43.2676 12.94 43.5276 12.38 43.7276 11.88C43.9276 11.36 44.0276 11 44.0276 10.8C44.0276 10.68 43.9776 10.62 43.8776 10.62H43.7876C43.5876 10.62 43.3776 10.6 43.1576 10.56C42.9576 10.52 42.7176 10.5 42.4376 10.5C42.1576 10.5 41.8576 10.54 41.5376 10.62C41.3576 10.66 41.0976 10.91 40.7576 11.37C40.4376 11.81 40.0776 12.37 39.6776 13.05C39.2976 13.73 38.9276 14.46 38.5676 15.24C38.2276 16 37.9376 16.73 37.6976 17.43C37.4776 18.13 37.3676 18.71 37.3676 19.17C37.3676 19.51 37.4676 19.68 37.6676 19.68ZM48.9207 19.05C48.3607 19.05 47.9507 18.89 47.6907 18.57C47.4507 18.23 47.3307 17.72 47.3307 17.04C47.3307 16.2 47.4707 15.35 47.7507 14.49C48.0507 13.61 48.4407 12.81 48.9207 12.09C49.4007 11.35 49.9307 10.76 50.5107 10.32C51.1107 9.88 51.7107 9.66 52.3107 9.66C52.3907 9.66 52.4607 9.67 52.5207 9.69C52.6007 9.69 52.6807 9.7 52.7607 9.72C52.7607 9.44 52.8007 9.19 52.8807 8.97C52.9807 8.75 53.2007 8.64 53.5407 8.64C53.9007 8.64 54.1307 8.77 54.2307 9.03C54.3507 9.27 54.4107 9.6 54.4107 10.02C54.4107 10.24 54.4007 10.48 54.3807 10.74C54.3607 11 54.3507 11.25 54.3507 11.49C54.4107 11.53 54.5307 11.62 54.7107 11.76C54.8907 11.88 54.9807 12.02 54.9807 12.18C54.9807 12.24 54.9707 12.29 54.9507 12.33C54.9107 12.39 54.8507 12.43 54.7707 12.45C54.6907 12.45 54.6107 12.45 54.5307 12.45H54.2607C54.2207 12.63 54.1707 12.89 54.1107 13.23C54.0507 13.55 53.9907 13.87 53.9307 14.19C53.8907 14.49 53.8407 14.7 53.7807 14.82C53.2807 16.1 52.5807 17.13 51.6807 17.91C50.7807 18.67 49.8607 19.05 48.9207 19.05ZM49.3407 18.18C49.6607 18.18 50.0307 18.04 50.4507 17.76C50.8907 17.46 51.3107 17.05 51.7107 16.53C52.1307 15.99 52.4707 15.37 52.7307 14.67C53.0107 13.95 53.1507 13.17 53.1507 12.33C52.9707 12.29 52.8607 12.18 52.8207 12C52.7807 11.8 52.7507 11.59 52.7307 11.37C52.7307 11.13 52.7107 10.93 52.6707 10.77C52.6307 10.59 52.5207 10.5 52.3407 10.5C51.9807 10.5 51.6407 10.64 51.3207 10.92C51.0007 11.18 50.7107 11.52 50.4507 11.94C50.1907 12.34 49.9607 12.74 49.7607 13.14C49.5807 13.52 49.4407 13.83 49.3407 14.07C49.1807 14.51 49.0107 15.04 48.8307 15.66C48.6707 16.26 48.5907 16.79 48.5907 17.25C48.5907 17.87 48.8407 18.18 49.3407 18.18ZM45.6807 31.5C45.0607 31.5 44.5407 31.39 44.1207 31.17C43.7007 30.95 43.4907 30.53 43.4907 29.91C43.4907 29.31 43.6507 28.59 43.9707 27.75C44.2707 26.91 44.6407 26.06 45.0807 25.2C45.5207 24.36 45.9607 23.6 46.4007 22.92C46.8407 22.24 47.1807 21.76 47.4207 21.48C47.4607 21.44 47.5307 21.39 47.6307 21.33C47.7507 21.27 47.8807 21.22 48.0207 21.18C47.7607 21.02 47.4907 20.88 47.2107 20.76C46.9507 20.64 46.8207 20.49 46.8207 20.31C46.8207 20.09 46.9107 19.89 47.0907 19.71C47.2907 19.51 47.4907 19.41 47.6907 19.41H47.8107C48.4107 19.63 49.0107 20.01 49.6107 20.55C50.2107 21.09 50.7507 21.71 51.2307 22.41C51.7307 23.13 52.1307 23.87 52.4307 24.63C52.7307 25.41 52.8807 26.14 52.8807 26.82C52.8807 26.92 52.8807 27.02 52.8807 27.12C52.8807 27.22 52.8707 27.32 52.8507 27.42C52.7707 27.96 52.4807 28.47 51.9807 28.95C51.4807 29.43 50.8607 29.86 50.1207 30.24C49.4007 30.64 48.6407 30.95 47.8407 31.17C47.0607 31.39 46.3407 31.5 45.6807 31.5ZM45.7407 30.75C46.2407 30.75 46.8107 30.65 47.4507 30.45C48.0907 30.27 48.7107 30.03 49.3107 29.73C49.9307 29.43 50.4407 29.11 50.8407 28.77C51.2407 28.43 51.4407 28.11 51.4407 27.81V27.42C51.4407 26.66 51.3007 25.91 51.0207 25.17C50.7407 24.45 50.3807 23.78 49.9407 23.16C49.5007 22.54 49.0307 22.02 48.5307 21.6C48.3307 21.92 48.0007 22.4 47.5407 23.04C47.0807 23.68 46.6007 24.4 46.1007 25.2C45.6207 26 45.2107 26.78 44.8707 27.54C44.5107 28.3 44.3307 28.96 44.3307 29.52C44.3307 30.34 44.8007 30.75 45.7407 30.75ZM54.9197 21.18C54.7997 21.18 54.7097 21.13 54.6497 21.03C54.6497 20.51 54.7097 20.03 54.8297 19.59C54.9697 19.13 55.1397 18.86 55.3397 18.78C55.6197 17.74 55.8297 16.94 55.9697 16.38C56.1097 15.8 56.2097 15.37 56.2697 15.09C56.3297 14.81 56.3797 14.59 56.4197 14.43C56.4597 14.25 56.5097 14.04 56.5697 13.8C56.6097 13.7 56.6297 13.61 56.6297 13.53C56.6297 13.45 56.6297 13.38 56.6297 13.32C56.6297 13.16 56.6097 13.07 56.5697 13.05C56.5297 13.01 56.5097 12.93 56.5097 12.81C56.5097 12.77 56.5097 12.73 56.5097 12.69C56.5297 12.63 56.5497 12.56 56.5697 12.48C56.8897 11.24 57.2097 10.39 57.5297 9.93C57.8497 9.45 58.3397 9.21 58.9997 9.21C59.2397 9.21 59.3797 9.29 59.4197 9.45C59.3197 9.73 59.0997 10.26 58.7597 11.04C58.4397 11.8 58.0897 12.69 57.7097 13.71C57.3497 14.73 57.0497 15.76 56.8097 16.8C56.9697 16.5 57.2197 16.06 57.5597 15.48C57.9197 14.88 58.3297 14.23 58.7897 13.53C59.2697 12.83 59.7797 12.17 60.3197 11.55C60.8597 10.91 61.3797 10.39 61.8797 9.99C62.3997 9.57 62.8697 9.36 63.2897 9.36C63.5297 9.36 63.7097 9.45 63.8297 9.63C63.9497 9.79 64.0097 10 64.0097 10.26C64.0097 10.52 63.9497 10.82 63.8297 11.16C63.7097 11.5 63.5397 11.83 63.3197 12.15C63.1797 12.35 62.9697 12.56 62.6897 12.78C62.4297 13 62.2197 13.11 62.0597 13.11C61.9397 13.11 61.8797 13.05 61.8797 12.93C61.8797 12.83 61.9297 12.67 62.0297 12.45C62.1297 12.21 62.2197 11.97 62.2997 11.73C62.3997 11.47 62.4497 11.26 62.4497 11.1C62.4497 10.96 62.3997 10.89 62.2997 10.89C61.9397 10.89 61.4797 11.19 60.9197 11.79C60.3797 12.39 59.7997 13.18 59.1797 14.16C58.5597 15.12 57.9797 16.16 57.4397 17.28C56.8997 18.38 56.4697 19.44 56.1497 20.46C56.0297 20.62 55.8397 20.78 55.5797 20.94C55.3197 21.1 55.0997 21.18 54.9197 21.18ZM63.4557 21.09C62.9757 21.09 62.7357 20.73 62.7357 20.01C62.7357 19.45 62.8457 18.76 63.0657 17.94C63.2857 17.1 63.5757 16.23 63.9357 15.33C64.2957 14.43 64.6857 13.59 65.1057 12.81C65.5457 12.01 65.9857 11.36 66.4257 10.86C66.8857 10.36 67.3057 10.11 67.6857 10.11H67.7757L68.1057 9.87C68.2057 9.75 68.3257 9.67 68.4657 9.63C68.6257 9.59 68.7857 9.57 68.9457 9.57C69.3457 9.57 69.7657 9.65 70.2057 9.81C70.6457 9.97 70.9457 10.05 71.1057 10.05C71.2457 10.05 71.3457 9.97 71.4057 9.81C71.4857 9.65 71.6457 9.57 71.8857 9.57C72.1657 9.57 72.3557 9.63 72.4557 9.75C72.5757 9.87 72.6357 10.03 72.6357 10.23C72.6357 10.51 72.5557 10.84 72.3957 11.22C72.2357 11.58 72.1057 11.88 72.0057 12.12C71.9857 12.2 71.8957 12.27 71.7357 12.33C71.5757 12.37 71.4757 12.43 71.4357 12.51C71.1157 13.43 70.8257 14.37 70.5657 15.33C70.3057 16.27 70.1057 17.09 69.9657 17.79C69.8257 18.49 69.7557 18.92 69.7557 19.08C69.7557 19.58 69.8957 19.83 70.1757 19.83C70.4157 19.83 70.6757 19.73 70.9557 19.53C71.2357 19.31 71.5057 19.07 71.7657 18.81C72.0457 18.55 72.2757 18.32 72.4557 18.12C72.6357 17.9 72.7357 17.79 72.7557 17.79C72.7957 17.79 72.8157 17.83 72.8157 17.91C72.8157 17.99 72.7857 18.11 72.7257 18.27C72.6657 18.43 72.5957 18.54 72.5157 18.6C72.3157 18.78 72.0057 19.06 71.5857 19.44C71.1657 19.8 70.7157 20.14 70.2357 20.46C69.7557 20.78 69.3357 20.94 68.9757 20.94C68.5557 20.94 68.3057 20.69 68.2257 20.19C68.2257 19.83 68.2857 19.37 68.4057 18.81C68.5257 18.23 68.6557 17.64 68.7957 17.04C68.9557 16.44 69.0957 15.94 69.2157 15.54C68.9157 15.94 68.5257 16.45 68.0457 17.07C67.5857 17.69 67.0757 18.31 66.5157 18.93C65.9757 19.53 65.4357 20.04 64.8957 20.46C64.3557 20.88 63.8757 21.09 63.4557 21.09ZM64.4157 19.68C64.6157 19.68 64.8757 19.55 65.1957 19.29C65.5357 19.01 65.8957 18.66 66.2757 18.24C66.6757 17.82 67.0457 17.4 67.3857 16.98C67.7457 16.56 68.0457 16.19 68.2857 15.87C68.5457 15.53 68.7057 15.32 68.7657 15.24C69.0857 14.72 69.3957 14.16 69.6957 13.56C70.0157 12.94 70.2757 12.38 70.4757 11.88C70.6757 11.36 70.7757 11 70.7757 10.8C70.7757 10.68 70.7257 10.62 70.6257 10.62H70.5357C70.3357 10.62 70.1257 10.6 69.9057 10.56C69.7057 10.52 69.4657 10.5 69.1857 10.5C68.9057 10.5 68.6057 10.54 68.2857 10.62C68.1057 10.66 67.8457 10.91 67.5057 11.37C67.1857 11.81 66.8257 12.37 66.4257 13.05C66.0457 13.73 65.6757 14.46 65.3157 15.24C64.9757 16 64.6857 16.73 64.4457 17.43C64.2257 18.13 64.1157 18.71 64.1157 19.17C64.1157 19.51 64.2157 19.68 64.4157 19.68ZM83.7987 22.32C83.5387 22.32 83.3287 22.23 83.1687 22.05C83.0087 21.87 82.9287 21.54 82.9287 21.06C82.9287 20.56 83.0187 20 83.1987 19.38C83.3787 18.76 83.5987 18.13 83.8587 17.49C84.1187 16.83 84.3787 16.21 84.6387 15.63C84.9187 15.03 85.1487 14.52 85.3287 14.1C85.5887 13.5 85.8087 12.97 85.9887 12.51C86.1687 12.03 86.2587 11.69 86.2587 11.49C86.2587 11.35 86.2087 11.28 86.1087 11.28C86.0487 11.28 85.9387 11.33 85.7787 11.43C85.2387 11.79 84.5887 12.38 83.8287 13.2C83.0687 14 82.3287 15 81.6087 16.2C80.8887 17.38 80.3187 18.74 79.8987 20.28C79.8587 20.44 79.6487 20.63 79.2687 20.85C78.8887 21.05 78.5687 21.15 78.3087 21.15C78.0687 21.15 77.9487 21.06 77.9487 20.88C77.9487 20.86 77.9487 20.84 77.9487 20.82C77.9687 20.8 77.9787 20.78 77.9787 20.76C78.1587 19.9 78.4087 18.91 78.7287 17.79C79.0687 16.65 79.4187 15.52 79.7787 14.4C80.1587 13.28 80.4987 12.33 80.7987 11.55C80.8987 11.29 80.9487 11.11 80.9487 11.01C80.9487 10.91 80.9187 10.86 80.8587 10.86C80.7587 10.86 80.6087 10.97 80.4087 11.19C78.9487 12.87 77.7987 14.36 76.9587 15.66C76.1187 16.94 75.4587 18.02 74.9787 18.9C74.5187 19.76 74.1187 20.41 73.7787 20.85C73.4587 21.29 73.0687 21.51 72.6087 21.51C72.4487 21.51 72.3687 21.43 72.3687 21.27C72.3687 21.05 72.4587 20.76 72.6387 20.4C72.8387 20.04 72.9587 19.8 72.9987 19.68C73.1987 19.2 73.3987 18.67 73.5987 18.09C73.7987 17.49 73.9887 16.9 74.1687 16.32C74.3687 15.74 74.5387 15.23 74.6787 14.79C74.8187 14.33 74.9187 14.01 74.9787 13.83C75.0587 13.59 75.0987 13.41 75.0987 13.29C75.0987 13.19 75.0787 13.12 75.0387 13.08C75.0187 13.04 75.0087 12.98 75.0087 12.9C75.0087 12.82 75.0387 12.69 75.0987 12.51C75.5187 11.29 75.8987 10.46 76.2387 10.02C76.5787 9.58 77.0787 9.36 77.7387 9.36C78.0187 9.36 78.1687 9.45 78.1887 9.63C78.0487 9.93 77.8387 10.36 77.5587 10.92C77.2987 11.48 77.0087 12.11 76.6887 12.81C76.3887 13.51 76.0987 14.21 75.8187 14.91C75.5587 15.61 75.3687 16.25 75.2487 16.83C75.5087 16.43 75.8487 15.9 76.2687 15.24C76.7087 14.58 77.1987 13.89 77.7387 13.17C78.2987 12.43 78.8687 11.73 79.4487 11.07C80.0487 10.41 80.6387 9.88 81.2187 9.48C81.7987 9.06 82.3387 8.85 82.8387 8.85C82.9987 8.85 83.1387 8.88 83.2587 8.94C83.3787 8.98 83.4387 9.08 83.4387 9.24C83.4387 9.42 83.3687 9.62 83.2287 9.84C82.3687 11.28 81.6687 12.61 81.1287 13.83C80.6087 15.03 80.2087 16.29 79.9287 17.61C80.4087 16.67 80.8587 15.85 81.2787 15.15C81.6987 14.43 82.1487 13.78 82.6287 13.2C83.1287 12.6 83.6987 12.01 84.3387 11.43C84.9987 10.85 85.7887 10.23 86.7087 9.57C86.8487 9.47 87.0687 9.37 87.3687 9.27C87.6687 9.17 87.9487 9.12 88.2087 9.12C88.6087 9.12 88.8087 9.26 88.8087 9.54C88.8087 9.68 88.7487 9.87 88.6287 10.11C88.1087 11.03 87.5487 12.09 86.9487 13.29C86.3487 14.47 85.7987 15.69 85.2987 16.95C84.8187 18.19 84.4687 19.36 84.2487 20.46C84.1887 20.66 84.1587 20.86 84.1587 21.06C84.1587 21.34 84.2487 21.48 84.4287 21.48C84.5487 21.48 84.7587 21.38 85.0587 21.18C85.3587 21 85.5487 20.91 85.6287 20.91C85.7287 20.91 85.7787 20.97 85.7787 21.09C85.7787 21.33 85.5587 21.59 85.1187 21.87C84.6987 22.17 84.2587 22.32 83.7987 22.32Z" fill="black"/>
</svg>
